<?xml version="1.0" encoding="utf-8"?>
<!-- Generator: Adobe Illustrator 21.0.0, SVG Export Plug-In . SVG Version: 6.00 Build 0)  -->
<svg version="1.1" id="图层_1" xmlns="http://www.w3.org/2000/svg" xmlns:xlink="http://www.w3.org/1999/xlink" x="0px" y="0px"
	 viewBox="0 0 200 200" style="enable-background:new 0 0 200 200;" xml:space="preserve">
<style type="text/css">
	.st0{fill:#FFFFFF;}
</style>
<path class="st0" d="M159.9,9.8H41.5c-10,0-18.1,8.1-18.1,18.1v157.8c0,2.7,2.2,4.9,4.9,4.9c0.3,0,0.5,0,0.8-0.1
	c1.4,0.2,2.8-0.1,3.9-1l20.3-16l20.3,16c1.8,1.4,4.3,1.4,6.1,0l21.1-16.6l20.4,16.1c1.8,1.4,4.3,1.4,6.1,0l20.3-16l20.7,16.3
	c1,0.8,2.1,1.1,3.3,1.1c0.5,0.1,0.9,0.2,1.4,0.2c2.7,0,4.9-2.2,4.9-4.9V27.9C178,17.9,169.9,9.8,159.9,9.8z M53.5,40
	c0-1.7,1.3-3,3-3h62.1c1.7,0,3,1.3,3,3v4.8c0,1.7-1.3,3-3,3H56.5c-1.7,0-3-1.3-3-3V40z M145.7,131.6c0,1.7-1.3,3-3,3H56.5
	c-1.7,0-3-1.3-3-3v-4.8c0-1.7,1.3-3,3-3h86.2c1.7,0,3,1.3,3,3V131.6L145.7,131.6z M145.7,102.7c0,1.7-1.3,3-3,3H56.5
	c-1.7,0-3-1.3-3-3v-4.8c0-1.7,1.3-3,3-3h86.2c1.7,0,3,1.3,3,3V102.7L145.7,102.7z M145.7,73.7c0,1.7-1.3,3-3,3H56.5
	c-1.7,0-3-1.3-3-3v-4.8c0-1.7,1.3-3,3-3h86.2c1.7,0,3,1.3,3,3V73.7L145.7,73.7z"/>
</svg>
