<?xml version="1.0" encoding="utf-8"?>
<!-- Generator: Adobe Illustrator 21.0.0, SVG Export Plug-In . SVG Version: 6.00 Build 0)  -->
<svg version="1.1" id="图层_1" xmlns="http://www.w3.org/2000/svg" xmlns:xlink="http://www.w3.org/1999/xlink" x="0px" y="0px"
	 viewBox="0 0 206 206" style="enable-background:new 0 0 206 206;" xml:space="preserve">
<style type="text/css">
	.st0{fill:#FFFFFF;}
</style>
<g>
	<g>
		<path class="st0" d="M201.7,165c-1.3,0-24.4,3.1-5.6,13.8c-5,8.1-12.5,15-20.7,19.4c-1.9-2.5-12.5-15.7-14.4,5
			c-6.9,1.3-13.2,1.3-20,0c0,0-0.6-20.7-15.7-6.3l-0.6,0.6c-7.5-4.4-13.2-10.6-17.5-17.5c2.5-1.9,16.3-13.8-5.6-13.8
			c-0.6-3.8-1.3-7.5-1.3-11.9c0-3.1,0-6.3,0.6-9.4h0.6c0,0,23.2,2.5,5-15.7c3.8-6.9,9.4-12.5,15.7-16.9c0,0,16.3,16.3,18.8-7.5
			c6.9-1.3,14.4-1.3,21.3,0c0,0,0.6,25.1,16.9,6.9c6.9,3.1,13.2,9.4,17.5,16.9c0,0-20.7,14.4,5,15.7h0.6
			C203.6,150.6,202.9,158.1,201.7,165L201.7,165z M151,132.4c-11.9,0-21.3,9.4-21.3,20.7c0,11.3,9.4,20.7,21.3,20.7
			c11.9,0,21.3-9.4,21.3-20.7C172.3,141.8,162.9,132.4,151,132.4L151,132.4z M85.8,93c-25.1,0-45.7-20-45.7-45.1S60.8,2.8,85.8,2.8
			s45.7,20,45.7,45.1S110.9,93,85.8,93L85.8,93z M102.1,115.5C80.8,137.4,90.2,170,90.2,170c3.1,7.5-2.5,9.4-2.5,9.4
			c-11.3,2.5-58.9-2.5-59.5-2.5c-30.1-3.1-25.1-13.2-25.1-13.2l9.4-27.6c5-23.8,26.3-28.8,26.3-28.8h63.9
			C105.2,111.1,102.1,115.5,102.1,115.5L102.1,115.5z M102.1,115.5"/>
	</g>
</g>
</svg>
