<?xml version="1.0" encoding="utf-8"?>
<!-- Generator: Adobe Illustrator 21.0.0, SVG Export Plug-In . SVG Version: 6.00 Build 0)  -->
<svg version="1.1" id="图层_1" xmlns="http://www.w3.org/2000/svg" xmlns:xlink="http://www.w3.org/1999/xlink" x="0px" y="0px"
	 viewBox="0 0 200 200" style="enable-background:new 0 0 200 200;" xml:space="preserve">
<style type="text/css">
	.st0{fill:#FFFFFF;}
</style>
<g>
	<path class="st0" d="M19,103.8c-3.1,0-4.9,2.7-3.6,5.8l6.3,62.9c0.9,3.1,4,5.8,7.2,5.8h146.9c3.1,0,6.3-2.7,7.2-5.8l6.3-62.9
		c0.9-3.1-0.9-5.8-4-5.8C185.1,103.8,19,103.8,19,103.8z M124.1,128.9c1.8,0,3.1-1.3,3.1-3.1v-6.3c0-1.8-1.3-3.1-3.1-3.1H80.5
		c-1.8,0-3.1,1.3-3.1,3.1v6.3c0,1.8,1.3,3.1,3.1,3.1H124.1z M52.2,88.1c0,1.8,1.3,3.1,3.1,3.1h93.9c1.8,0,3.1-1.3,3.1-3.1v-6.3
		c0-1.8-1.3-3.1-3.1-3.1H55.3c-1.8,0-3.1,1.3-3.1,3.1V88.1z"/>
	<path class="st0" d="M160.9,41.4c1.8,0,3.1,1.3,3.6,3.1l10.3,44.9c0.4,1.8,2.2,3.1,3.6,3.1h8.5c1.8,0,2.7-1.3,2.2-2.7l-12.6-57
		c-0.4-1.8-1.8-3.1-3.6-3.1H30.7c-1.8,0-3.6,1.3-3.6,3.1L14.5,89.4c-0.4,1.8,0.9,3.1,2.2,3.1h8.1c1.8,0,3.1-1.3,3.6-3.1l10.3-44.9
		c0.4-1.8,1.8-3.1,3.6-3.1H160.9L160.9,41.4z"/>
	<path class="st0" d="M52.2,63.4c0,1.8,1.3,3.1,3.1,3.1h93.9c1.8,0,3.1-1.3,3.1-3.1v-6.7c0-1.8-1.3-3.1-3.1-3.1H55.3
		c-1.8,0-3.1,1.3-3.1,3.1V63.4z"/>
</g>
</svg>
