<?xml version="1.0" encoding="utf-8"?>
<!-- Generator: Adobe Illustrator 21.0.0, SVG Export Plug-In . SVG Version: 6.00 Build 0)  -->
<svg version="1.1" id="图层_1" xmlns="http://www.w3.org/2000/svg" xmlns:xlink="http://www.w3.org/1999/xlink" x="0px" y="0px"
	 viewBox="0 0 200 200" style="enable-background:new 0 0 200 200;" xml:space="preserve">
<style type="text/css">
	.st0{fill:#FFFFFF;}
</style>
<path class="st0" d="M100.1,4.1C47,4.1,3.9,47.2,3.9,100.3s43.1,96.2,96.2,96.2s96.2-43.1,96.2-96.2C196.3,47.2,153.2,4.1,100.1,4.1
	L100.1,4.1z M94.8,144.2l-5.8,5.6c-5.3,5.1-12.2,7.6-19.1,7.6s-13.8-2.5-19.1-7.6c-5.1-4.9-7.9-11.5-7.9-18.5s2.8-13.6,7.9-18.5
	l21.3-20.6c13.2-12.8,28.4-14.6,38.7-4.7c2.8,2.7,2.8,7.1,0,9.8c-2.8,2.7-7.2,2.7-10,0c-6-5.8-14.3,0.4-18.7,4.7l-21.3,20.6
	c-2.4,2.3-3.7,5.4-3.7,8.7s1.3,6.4,3.7,8.7c5,4.8,13.2,4.8,18.2,0l5.8-5.6c2.8-2.7,7.3-2.7,10,0C97.6,137.1,97.6,141.5,94.8,144.2z
	 M149.3,91.5l-22.7,22c-7,6.8-14.4,10.2-21.4,10.2c-5.7,0-11.1-2.3-15.9-6.9c-2.8-2.7-2.8-7.1,0-9.8c2.8-2.7,7.2-2.7,10,0
	c2.1,2,7,6.7,17.3-3.3l22.7-22c2.4-2.3,3.7-5.4,3.7-8.7c0-3.3-1.3-6.4-3.7-8.7c-4.5-4.4-11.4-6.5-16.7-1.4l-7.2,7
	c-2.8,2.7-7.3,2.7-10,0c-2.8-2.7-2.7-7.1,0-9.8l7.2-7c10.2-9.9,25.7-9.3,36.7,1.4c5.1,4.9,7.9,11.5,7.9,18.5S154.4,86.5,149.3,91.5z
	"/>
</svg>
