<?xml version="1.0" standalone="no"?><!DOCTYPE svg PUBLIC "-//W3C//DTD SVG 1.1//EN" "http://www.w3.org/Graphics/SVG/1.1/DTD/svg11.dtd"><svg t="1591963729286" class="icon" viewBox="0 0 1024 1024" version="1.1" xmlns="http://www.w3.org/2000/svg" p-id="773" xmlns:xlink="http://www.w3.org/1999/xlink" width="48" height="48"><defs><style type="text/css"></style></defs><path d="M769.13777778 920.46222222H252.58666667a42.09777778 42.09777778 0 0 1-42.09777778-42.09777777 42.09777778 42.09777778 0 0 1 42.09777778-42.09777778h516.55111111a42.09777778 42.09777778 0 0 1 42.09777777 42.09777778 42.09777778 42.09777778 0 0 1-42.09777777 42.09777777z m127.71555555-830.57777777h-771.98222222A46.31893333 46.31893333 0 0 0 78.50666667 136.15786667v601.4976A46.31893333 46.31893333 0 0 0 124.87111111 783.92888889h771.98222222A46.31893333 46.31893333 0 0 0 943.21777778 737.65546667V136.15786667A46.31893333 46.31893333 0 0 0 896.85333333 89.88444445z m-92.04622222 470.68728888a32.47217778 32.47217778 0 0 1-42.98524444-16.05404444l-82.7392-181.38453334a9.28426667 9.28426667 0 0 0-16.2816-1.13777777L520.46506667 587.09333333a18.56853333 18.56853333 0 0 1-26.71502222 5.00622222l-143.80373334-106.1888a9.28426667 9.28426667 0 0 0-11.91253333 0.73955556L257.37671111 563.2a32.41528889 32.41528889 0 1 1-44.7488-46.92195555l114.51733334-108.7488a18.57991111 18.57991111 0 0 1 23.81368888-1.46773334L482.17884445 502.89777778a11.61671111 11.61671111 0 0 0 16.70257777-3.12888889l164.03342223-259.2768a18.56853333 18.56853333 0 0 1 32.5632 2.21866666L820.89528889 517.68888889a32.34702222 32.34702222 0 0 1-16.08817778 42.88284444z" p-id="774"></path></svg>