<?xml version="1.0" standalone="no"?><!DOCTYPE svg PUBLIC "-//W3C//DTD SVG 1.1//EN" "http://www.w3.org/Graphics/SVG/1.1/DTD/svg11.dtd"><svg t="1589799074904" class="icon" viewBox="0 0 1024 1024" version="1.1" xmlns="http://www.w3.org/2000/svg" p-id="670" xmlns:xlink="http://www.w3.org/1999/xlink" width="200" height="200"><defs><style type="text/css"></style></defs><path d="M509.69258667 3.52711111c-280.41102222 0-507.73333333 227.32344889-507.73333334 507.73333334S229.28156445 1018.99377778 509.69258667 1018.99377778c280.40988445 0 507.73333333-227.32344889 507.73333333-507.73333333S790.10360889 3.52711111 509.69372445 3.52711111zM695.86488889 765.12824889H323.52369778c-25.20177778 0-47.17454222-13.78531555-58.82766223-34.21525334h489.99424c-11.65539555 20.42993778-33.62588445 34.21525333-58.82652444 34.21525334z m67.69550222-68.62506667h-507.73333333V291.24380445c0-37.38737778 30.31153778-67.69777778 67.69777777-67.69777778H695.86488889c37.38396445 0 67.69777778 30.3104 67.69777778 67.69777778v405.25937777zM399.68426667 291.24380445h203.09333333a8.46506667 8.46506667 0 0 0 8.46506667-8.46165334v-16.92444444a8.46506667 8.46506667 0 0 0-8.46506667-8.46392889h-203.09333333a8.45824 8.45824 0 0 0-8.46165334 8.46392889v16.92444444a8.45596445 8.45596445 0 0 0 8.46165334 8.46165334zM662.016 578.95936c-18.69368889 0-33.85002667 15.15747555-33.85002667 33.84888889s15.15633778 33.84888889 33.85002667 33.84888889c18.69255111 0 33.84888889-15.15747555 33.84888889-33.84888889s-15.15747555-33.84888889-33.84888889-33.84888889z m42.30826667-253.86666667H315.06204445a8.45824 8.45824 0 0 0-8.46279112 8.46165334v186.17002666a8.45824 8.45824 0 0 0 8.46279112 8.46165334h389.26222222a8.46279111 8.46279111 0 0 0 8.46392888-8.46165334V333.55434667a8.46279111 8.46279111 0 0 0-8.46392888-8.46165334z" p-id="671"></path></svg>