<?xml version="1.0" encoding="utf-8"?>
<!-- Generator: Adobe Illustrator 21.0.0, SVG Export Plug-In . SVG Version: 6.00 Build 0)  -->
<svg version="1.1" id="图层_1" xmlns="http://www.w3.org/2000/svg" xmlns:xlink="http://www.w3.org/1999/xlink" x="0px" y="0px"
	 viewBox="0 0 206 206" style="enable-background:new 0 0 206 206;" xml:space="preserve">
<style type="text/css">
	.st0{}
</style>
<g>
	<g>
		<path class="st0" d="M191.6,163.1l-66.7,38.5c-2.7,1.6-6.1,1.6-8.9,0c-2.8-1.6-4.4-4.5-4.4-7.7v-64c0-3.2,1.7-6.1,4.5-7.7
			l66.7-38.5c2.7-1.6,6.1-1.6,8.9,0c2.8,1.6,4.4,4.5,4.4,7.7v64C196,158.5,194.3,161.5,191.6,163.1L191.6,163.1z M13.7,163.1
			c-2.8-1.6-4.5-4.5-4.5-7.7v-64c0-3.2,1.7-6.1,4.4-7.7c2.8-1.6,6.1-1.6,8.9,0l66.7,38.5c2.8,1.6,4.5,4.5,4.5,7.7v64
			c0,3.2-1.7,6.1-4.4,7.7c-2.8,1.6-6.1,1.6-8.9,0L13.7,163.1z M98.2,7.2c2.7-1.5,6.1-1.5,8.8,0l75.5,43.1c2.8,1.6,4.5,4.5,4.5,7.7
			c0,3.2-1.7,6.1-4.5,7.7L107,108.9c-2.7,1.6-6.1,1.6-8.8,0L22.7,65.8c-2.8-1.6-4.5-4.5-4.5-7.7c0-3.2,1.7-6.1,4.5-7.7L98.2,7.2
			L98.2,7.2z M98.2,7.2"/>
	</g>
</g>
</svg>
