<?xml version="1.0" encoding="utf-8"?>
<!-- Generator: Adobe Illustrator 21.0.0, SVG Export Plug-In . SVG Version: 6.00 Build 0)  -->
<svg version="1.1" id="图层_1" xmlns="http://www.w3.org/2000/svg" xmlns:xlink="http://www.w3.org/1999/xlink" x="0px" y="0px"
	 viewBox="0 0 200 200" style="enable-background:new 0 0 200 200;" xml:space="preserve">
<style type="text/css">
	.st0{fill:#FFFFFF;}
</style>
<path class="st0" d="M101.2,194.6c-49.1,0-89.1-40.1-89.1-89.4c0-23.6,9-45.8,25.5-62.6c1.3-1.3,3-2,4.8-2c1.8,0,3.4,0.7,4.7,1.9
	c2.6,2.6,2.7,6.8,0.1,9.5c-14,14.3-21.7,33.2-21.7,53.3c0,41.9,34,76,75.8,76c41.8,0,75.8-34.1,75.8-76c0-20.3-7.9-39.4-22.2-53.8
	c-2.6-2.6-2.6-6.9,0-9.5c1.3-1.3,2.9-2,4.7-2c1.8,0,3.5,0.7,4.7,2c16.8,16.9,26.1,39.4,26.1,63.3
	C190.3,154.5,150.3,194.6,101.2,194.6z M101.2,89.4c-3.7,0-6.7-3-6.7-6.7V16.4c0-3.7,3-6.7,6.7-6.7c3.7,0,6.7,3,6.7,6.7v66.4
	C107.8,86.4,104.9,89.4,101.2,89.4z"/>
</svg>
