<?xml version="1.0" encoding="utf-8"?>
<!-- Generator: Adobe Illustrator 21.0.0, SVG Export Plug-In . SVG Version: 6.00 Build 0)  -->
<svg version="1.1" id="图层_1" xmlns="http://www.w3.org/2000/svg" xmlns:xlink="http://www.w3.org/1999/xlink" x="0px" y="0px"
	 viewBox="0 0 200 200" style="enable-background:new 0 0 200 200;" xml:space="preserve">
<style type="text/css">
	.st0{fill:#FFFFFF;}
</style>
<g>
	<path class="st0" d="M63.5,187.8h-48c-3.3,0-6-2.7-6-6v-47.8c0-1.6,0.6-3.1,1.8-4.3L131.5,9c1.1-1.1,2.7-1.8,4.3-1.8
		c1.6,0,3.1,0.6,4.3,1.8l48.2,48.4c1.1,1.1,1.8,2.7,1.8,4.3c0,1.6-0.6,3.1-1.8,4.3l-24,24.1c-1.1,1.1-2.7,1.8-4.3,1.8
		c-1.6,0-3.1-0.6-4.3-1.8l-24-24.1c-2.4-2.4-2.4-6.2,0-8.5c2.3-2.4,6.2-2.4,8.5,0L160,77.2l15.5-15.6l-39.7-39.8L21.5,136.5v39.3H61
		l70.3-70.5c2.3-2.4,6.2-2.4,8.5,0c2.3,2.3,2.3,6.2,0,8.5l-72.1,72.3C66.6,187.2,65.1,187.8,63.5,187.8L63.5,187.8z M63.5,187.8"/>
</g>
</svg>
