<?xml version="1.0" encoding="utf-8"?>
<!-- Generator: Adobe Illustrator 21.0.0, SVG Export Plug-In . SVG Version: 6.00 Build 0)  -->
<svg version="1.1" id="图层_1" xmlns="http://www.w3.org/2000/svg" xmlns:xlink="http://www.w3.org/1999/xlink" x="0px" y="0px"
	 viewBox="0 0 200 200" style="enable-background:new 0 0 200 200;" xml:space="preserve">
<style type="text/css">
	.st0{fill:#FFFFFF;}
</style>
<path class="st0" d="M193.9,98l-6.2,0.1c-0.8-34.9-21.9-66.4-54.7-79.7C98.3,4.2,58.2,13.5,33.2,41.7c-2.5,2.7-2.1,6.9,0.6,9.4
	c2.7,2.4,6.9,2.1,9.4-0.6c21-24,55.2-31.9,84.7-19.8c27.8,11.4,45.8,38.1,46.5,67.7l-6.8,0.1c-3.8,0.1-5.9,4.5-3.4,7.5l13.4,16.6
	c1.9,2.4,5.5,2.3,7.4-0.1l12.8-17.2C199.9,102.4,197.7,98,193.9,98L193.9,98z M165.5,149.7c-2.7-2.5-6.9-2.1-9.4,0.6
	c-21.1,24-55.3,31.9-84.8,19.7c-27.8-11.4-45.8-38.1-46.5-67.7l6.8-0.1c3.8-0.1,5.9-4.5,3.4-7.5L21.6,78.1c-1.9-2.4-5.5-2.3-7.4,0.1
	L1.7,95.3c-2.3,3.1,0,7.5,3.8,7.4l6.2-0.1c0.8,34.9,21.9,66.4,54.7,79.7c10.8,4.5,22.2,6.6,33.5,6.6c24.8,0,49.1-10.4,66.3-29.8
	C168.6,156.4,168.4,152.2,165.5,149.7L165.5,149.7z"/>
</svg>
