<?xml version="1.0" encoding="utf-8"?>
<!-- Generator: Adobe Illustrator 21.0.0, SVG Export Plug-In . SVG Version: 6.00 Build 0)  -->
<svg version="1.1" id="图层_1" xmlns="http://www.w3.org/2000/svg" xmlns:xlink="http://www.w3.org/1999/xlink" x="0px" y="0px"
	 viewBox="0 0 206 206" style="enable-background:new 0 0 206 206;" xml:space="preserve">
<style type="text/css">
</style>
<path class="st0" d="M199.8,102.1l-90.5-90.5c-3.5-3.5-9.3-3.5-12.8,0L6,102.1c-2.9,2.3-0.6,7,2.9,7h21.6v63.6
	c0,12.3,9.9,22.8,22.8,22.8H76c5.3,0,8.8-4.1,8.8-8.8v-44.9c0-2.3,1.8-4.7,4.7-4.7h26.9c2.3,0,4.7,1.8,4.7,4.7v44.9
	c0,5.3,4.1,8.8,8.8,8.8h22.8c12.3,0,22.8-9.9,22.8-22.8v-63.6h21.6C201,109.1,202.7,104.4,199.8,102.1z"/>
</svg>
