<?xml version="1.0" encoding="utf-8"?>
<!-- Generator: Adobe Illustrator 21.0.0, SVG Export Plug-In . SVG Version: 6.00 Build 0)  -->
<svg version="1.1" id="图层_1" xmlns="http://www.w3.org/2000/svg" xmlns:xlink="http://www.w3.org/1999/xlink" x="0px" y="0px"
	 viewBox="0 0 200 200" style="enable-background:new 0 0 200 200;" xml:space="preserve">
<style type="text/css">
	.st0{fill:#FFFFFF;}
</style>
<path class="st0" d="M54.3,146.9H21.7c-7.9,0-14.3-6.6-14.3-14.6v-62c0-8.1,6.4-14.6,14.3-14.6h32.6L99.8,9.2
	c7.8,0.3,14,6.7,14,14.6v154.9c0,7.9-6.2,14.4-14,14.6L54.3,146.9z M100.4,180.5V24.2L59.2,70.5H20.8v63.7h38.5L100.4,180.5z
	 M185.6,193.3c-0.1,0-0.2,0-0.2,0l-16.5-9.7c-0.5-0.3-0.6-2.8,1.3-6.1c1.5-2.6,3.4-4.2,4.3-4.2c0.1,0,0.2,0,0.2,0l16.5,9.7
	c0.5,0.3,0.6,2.8-1.3,6.1C188.2,192,186.4,193.3,185.6,193.3z M130.8,138.7c-0.5,0-1-0.1-1.5-0.2c-1.3-0.4-2.5-1.4-3.1-2.7l0,0
	c-0.8-2.2-1.6-6.1,2.2-7.5l0.1,0c8.9-4.2,14-12.3,15.2-24.1C145,91.5,139,79.8,128.7,75c-2.5-1.7-4.2-4.8-2.2-8c1.3-2,3.1-3.2,5-3.2
	c1,0,1.9,0.3,2.8,0.9c15.2,9,23.2,24.2,21.4,40.8c-1.5,14.4-10.2,27.1-22.3,32.5l0,0l0,0C132.6,138.5,131.7,138.7,130.8,138.7z
	 M170.5,107.2c-0.6,0-1.8-2.2-1.8-5.9c0-3.8,1.2-5.9,1.8-5.9h19c0.5,0,1.8,2,1.8,5.9c0,3.7-1.2,5.9-1.8,5.9H170.5z M174.5,29.2
	c-0.9,0-2.8-1.6-4.3-4.2c-1.8-3.2-1.9-5.8-1.3-6.1l16.5-9.7c0,0,0.1,0,0.2,0c0.8,0,2.6,1.3,4.3,4.2c1.8,3.2,1.9,5.8,1.3,6.1
	l-16.5,9.7C174.7,29.2,174.6,29.2,174.5,29.2L174.5,29.2z"/>
</svg>
