<?xml version="1.0" encoding="utf-8"?>
<!-- Generator: Adobe Illustrator 21.0.0, SVG Export Plug-In . SVG Version: 6.00 Build 0)  -->
<svg version="1.1" id="图层_1" xmlns="http://www.w3.org/2000/svg" xmlns:xlink="http://www.w3.org/1999/xlink" x="0px" y="0px"
	 viewBox="0 0 112 112" style="enable-background:new 0 0 112 112;" xml:space="preserve">
<style type="text/css">
	.st0{fill:url(#SVGID_1_);}
	.st1{fill:#FFFFFF;}
</style>
<linearGradient id="SVGID_1_" gradientUnits="userSpaceOnUse" x1="55.9" y1="112.4" x2="55.9" y2="0.4">
	<stop  offset="0" style="stop-color:#FCAA4E"/>
	<stop  offset="1" style="stop-color:#FCB76A"/>
</linearGradient>
<path class="st0" d="M81.9,112.4h-52c-16.5,0-30-13.5-30-30v-52c0-16.5,13.5-30,30-30h52c16.5,0,30,13.5,30,30v52
	C111.9,98.9,98.4,112.4,81.9,112.4z"/>
<g>
	<g>
		<path class="st1" d="M68.5,69.7c-5.8-6.7-26.1-6.2-26.4-8.3V46.2c0.3-2.9,16.6-1.6,25.1-9.5c8.6-8,11.9,7.3,11.9,17.7
			C79.1,64.8,74.3,76.4,68.5,69.7L68.5,69.7z M32.8,57.1v-7.7c0-1.7,1.4-3.1,3.1-3.1H39v13.8h-3.1C34.2,60.1,32.8,58.8,32.8,57.1
			L32.8,57.1z M45.7,65.7c2.2,0.4,3.8,1.1,3.8,1.1s0.7,1.9,2.6,4.6c2.3,3.2,5.1,7.3,1.9,7.3c-1,0-1.9,0-2.8,0
			c-2.7,0-4.2-1.9-6.8-6.2c-2.9-4.9-2.2-7.5-2.2-7.5S43.6,65.2,45.7,65.7L45.7,65.7z M45.7,65.7"/>
	</g>
</g>
</svg>
