<?xml version="1.0" encoding="utf-8"?>
<!-- Generator: Adobe Illustrator 21.0.0, SVG Export Plug-In . SVG Version: 6.00 Build 0)  -->
<svg version="1.1" id="图层_1" xmlns="http://www.w3.org/2000/svg" xmlns:xlink="http://www.w3.org/1999/xlink" x="0px" y="0px"
	 viewBox="0 0 206 206" style="enable-background:new 0 0 206 206;" xml:space="preserve">
<style type="text/css">
	.st0{fill:#FFFFFF;}
</style>
<g>
	<g>
		<path class="st0" d="M103.8,7.8C51.8,7.8,9.7,50,9.7,101.9c0,51.9,42.1,94.1,94.1,94.1c51.9,0,94.1-42.1,94.1-94.1
			C197.8,50,155.7,7.8,103.8,7.8z M165.7,114.1c-1.2,2.9-4,4.7-7.1,4.7l-110.4,0.8h0c-4.2,0-7.6-3.4-7.6-7.6c0-4.2,3.4-7.6,7.6-7.6
			l91.5-0.7l-23.3-21.6c-1.5-1.3-2.4-3.2-2.4-5.3c-0.1-2,0.7-3.9,2-5.4c1.4-1.6,3.4-2.5,5.5-2.5c1.9,0,3.8,0.7,5.2,2l37.1,34.9
			C166.1,107.6,166.9,111.2,165.7,114.1z"/>
		<path class="st0" d="M16.2,148.8"/>
	</g>
</g>
</svg>
