<?xml version="1.0" standalone="no"?><!DOCTYPE svg PUBLIC "-//W3C//DTD SVG 1.1//EN" "http://www.w3.org/Graphics/SVG/1.1/DTD/svg11.dtd"><svg t="1589967481325" class="icon" viewBox="0 0 1024 1024" version="1.1" xmlns="http://www.w3.org/2000/svg" p-id="767" xmlns:xlink="http://www.w3.org/1999/xlink" width="200" height="200"><defs><style type="text/css"></style></defs><path d="M513.6384 988.22826667c-263.23626667 0-477.86666667-214.6304-477.86666667-477.86666667s214.6304-477.86666667 477.86666667-477.86666667 477.86666667 214.6304 477.86666667 477.86666667-214.08426667 477.86666667-477.86666667 477.86666667z m0-892.38186667c-228.28373333 0-413.96906667 185.68533333-413.96906667 413.96906667s185.68533333 413.96906667 413.96906667 413.96906666 413.96906667-185.68533333 413.96906667-413.96906666c0-227.7376-185.68533333-413.96906667-413.96906667-413.96906667z" fill="#323333" p-id="768"></path><path d="M764.85973333 544.22186667h-502.44266666c-12.01493333 0-21.84533333-9.8304-21.84533334-21.84533334v-24.576c0-12.01493333 9.8304-21.84533333 21.84533334-21.84533333h502.44266666c12.01493333 0 21.84533333 9.8304 21.84533334 21.84533333v24.576c0 12.01493333-9.8304 21.84533333-21.84533334 21.84533334z" fill="#323333" p-id="769"></path></svg>