<?xml version="1.0" encoding="utf-8"?>
<!-- Generator: Adobe Illustrator 24.1.0, SVG Export Plug-In . SVG Version: 6.00 Build 0)  -->
<svg version="1.1" id="图层_1" xmlns="http://www.w3.org/2000/svg" xmlns:xlink="http://www.w3.org/1999/xlink" x="0px" y="0px"
	 viewBox="0 0 23.2 23.2" style="enable-background:new 0 0 23.2 23.2;" xml:space="preserve">
<style type="text/css">
	.st0{fill:#8D8C8D;}
	.st1{fill:none;stroke:#8D8C8D;stroke-width:2;stroke-miterlimit:10;}
	.st2{fill:none;stroke:#8D8C8D;stroke-width:1.8;stroke-linecap:round;stroke-miterlimit:10;}
	.st3{fill:none;stroke:#8D8C8D;stroke-width:2;stroke-linecap:round;stroke-miterlimit:10;}
</style>
<path class="st0" d="M22,6.8H1.2C0.8,6.8,0.4,6.4,0.4,6V5.5c0-0.4,0.3-0.7,0.7-0.7H22c0.4,0,0.8,0.3,0.8,0.7V6
	C22.8,6.4,22.4,6.8,22,6.8z"/>
<path class="st1" d="M16.9,5.8V3.1c0-0.9-0.7-1.6-1.6-1.6H7.9C7,1.5,6.3,2.2,6.3,3.1v2.7H16.9z"/>
<path class="st2" d="M4.8,8.3v12.2c0,0.9,0.7,1.6,1.7,1.6h10.2c0.9,0,1.7-0.7,1.7-1.6V8.3"/>
<line class="st3" x1="9.7" y1="9.4" x2="9.7" y2="16.3"/>
<line class="st3" x1="13.4" y1="9.4" x2="13.4" y2="16.3"/>
</svg>
