<?xml version="1.0" encoding="utf-8"?>
<!-- Generator: Adobe Illustrator 24.1.0, SVG Export Plug-In . SVG Version: 6.00 Build 0)  -->
<svg version="1.1" id="图层_1" xmlns="http://www.w3.org/2000/svg" xmlns:xlink="http://www.w3.org/1999/xlink" x="0px" y="0px"
	 viewBox="0 0 23.2 23.2" style="enable-background:new 0 0 23.2 23.2;" xml:space="preserve">
<style type="text/css">
	.st0{fill:#438CFF;}
</style>
<path class="st0" d="M20.1,3.2c-3.6-0.4-6.2-1.4-8-2.9l-0.5-0.4l-0.5,0.3C8.5,2.2,5.8,3.2,3.2,3.2H2.5v10.7c0,3.3,2.9,6.2,8.8,9.1
	l0.3,0.1l0.3-0.1c5.9-2.5,8.8-5.6,8.8-9.1V3.3L20.1,3.2L20.1,3.2z M18.7,13.7c0,2.6-2.4,5-7.1,7c-4.7-2.3-7.1-4.7-7.1-7V5.1
	c2.3-0.2,4.7-1,7.1-2.6c1.7,1.3,4.1,2.2,7.2,2.6V13.7z"/>
<g>
	<path class="st0" d="M14.8,14.9L14.8,14.9c-0.4,0.4-1,0.4-1.4,0l-4.5-4.5c-0.4-0.4-0.4-1,0-1.4l0,0c0.4-0.4,1-0.4,1.4,0l4.5,4.5
		C15.2,13.9,15.2,14.5,14.8,14.9z"/>
	<path class="st0" d="M14.8,9L14.8,9c0.4,0.4,0.4,1,0,1.4l-4.5,4.5c-0.4,0.4-1,0.4-1.4,0l0,0c-0.4-0.4-0.4-1,0-1.4L13.4,9
		C13.8,8.6,14.4,8.6,14.8,9z"/>
</g>
</svg>
