<?xml version="1.0" encoding="utf-8"?>
<!-- Generator: Adobe Illustrator 24.1.0, SVG Export Plug-In . SVG Version: 6.00 Build 0)  -->
<svg version="1.1" id="图层_1" xmlns="http://www.w3.org/2000/svg" xmlns:xlink="http://www.w3.org/1999/xlink" x="0px" y="0px"
	 viewBox="0 0 23.2 23.2" style="enable-background:new 0 0 23.2 23.2;" xml:space="preserve">
<style type="text/css">
	.st0{fill:#25C8BA;}
</style>
<g>
	<path class="st0" d="M11.6,23.1C5.3,23.1,0.1,18,0.1,11.6S5.3,0.1,11.6,0.1s11.5,5.1,11.5,11.5S17.9,23.1,11.6,23.1z M11.6,2.1
		c-5.2,0-9.5,4.3-9.5,9.5s4.4,9.5,9.5,9.5s9.5-4.4,9.5-9.5C21.1,6.4,16.8,2.1,11.6,2.1z"/>
	<path class="st0" d="M11.6,22.9c-6.2,0-11.3-5.1-11.3-11.3S5.4,0.3,11.6,0.3s11.3,5.1,11.3,11.3S17.8,22.9,11.6,22.9z M11.6,2
		C6.2,2,2,6.3,2,11.6s4.4,9.6,9.6,9.6s9.6-4.4,9.6-9.6S17,2,11.6,2z"/>
	<path class="st0" d="M9.7,16c-0.2,0-0.5-0.1-0.7-0.2l-3.2-3.1c-0.2-0.2-0.2-0.5-0.2-0.7s0.1-0.5,0.3-0.7c0.2-0.2,0.5-0.2,0.7-0.2
		s0.5,0.1,0.7,0.3l2.4,2.3L16,7.4c0.2-0.2,0.5-0.2,0.7-0.2s0.4,0.1,0.7,0.2c0.3,0.3,0.3,0.5,0.3,0.7c0,0.2-0.1,0.4-0.2,0.7l-6.9,7
		C10.1,15.9,9.9,16,9.7,16z"/>
	<path class="st0" d="M9.7,15.9c-0.2,0-0.4-0.1-0.6-0.2L6,12.6c-0.2-0.2-0.2-0.4-0.2-0.6c0-0.2,0.1-0.4,0.3-0.6
		c0.2-0.2,0.4-0.2,0.6-0.2s0.4,0.1,0.6,0.3l2.5,2.4L16,7.6l0.1-0.1c0.2-0.2,0.4-0.2,0.6-0.2s0.4,0.1,0.6,0.2
		c0.2,0.2,0.2,0.4,0.2,0.6c0,0.2-0.1,0.4-0.2,0.6l-6.9,6.9C10,15.8,9.8,15.9,9.7,15.9z"/>
</g>
</svg>
