<?xml version="1.0" encoding="utf-8"?>
<!-- Generator: Adobe Illustrator 24.1.0, SVG Export Plug-In . SVG Version: 6.00 Build 0)  -->
<svg version="1.1" id="图层_1" xmlns="http://www.w3.org/2000/svg" xmlns:xlink="http://www.w3.org/1999/xlink" x="0px" y="0px"
	 viewBox="0 0 23.2 23.2" style="enable-background:new 0 0 23.2 23.2;" xml:space="preserve">
<style type="text/css">
	.st0{fill:none;stroke:#438CFF;stroke-width:2;stroke-miterlimit:10;}
	.st1{fill:#438CFF;}
</style>
<path class="st0" d="M11.6,0.9C5.7,0.9,0.9,5.7,0.9,11.6s4.8,10.7,10.7,10.7s10.7-4.8,10.7-10.7S17.5,0.9,11.6,0.9L11.6,0.9z"/>
<path class="st1" d="M14.6,17.4c-0.3,0-0.4-0.1-0.5-0.2l-3.3-3.3c-0.3-0.1-0.5-0.4-0.5-0.7V6.4c0-0.4,0.4-0.8,0.8-0.8h0.4
	c0.4,0,0.8,0.4,0.8,0.8v6l3.3,3.3c0.3,0.3,0.3,0.7,0,1.1l-0.3,0.3C15.1,17.2,14.8,17.4,14.6,17.4z"/>
<path class="st1" d="M14.6,17.2c-0.2,0-0.3-0.1-0.4-0.2l-3.3-3.3c-0.3-0.1-0.5-0.3-0.5-0.6V6.4c0-0.3,0.3-0.6,0.6-0.6h0.4
	c0.3,0,0.6,0.3,0.6,0.6v6.1l3.3,3.3c0.2,0.2,0.2,0.6,0,0.9L15,17C15,17.1,14.8,17.2,14.6,17.2z"/>
</svg>
