<?xml version="1.0" encoding="utf-8"?>
<!-- Generator: Adobe Illustrator 24.1.0, SVG Export Plug-In . SVG Version: 6.00 Build 0)  -->
<svg version="1.1" id="图层_1" xmlns="http://www.w3.org/2000/svg" xmlns:xlink="http://www.w3.org/1999/xlink" x="0px" y="0px"
	 viewBox="0 0 23.2 23.2" style="enable-background:new 0 0 23.2 23.2;" xml:space="preserve">
<style type="text/css">
	.st0{fill:#438CFF;}
</style>
<g>
	<path class="st0" d="M11.6,23.2C5.2,23.2,0,18,0,11.6C0,5.2,5.2,0,11.6,0s11.6,5.2,11.6,11.7c0,0.6-0.5,1-1,1c-0.6,0-1-0.5-1-1
		c0-5.3-4.3-9.5-9.5-9.5s-9.5,4.3-9.5,9.5s4.3,9.5,9.5,9.5c3.3,0,6.4-1.8,8.2-4.6l0.1-0.1c0,0,0-0.1,0-0.1c0-0.1,0.1-0.2,0.2-0.3
		c0.1-0.3,0.5-0.4,0.8-0.4c0.2,0,0.4,0,0.5,0.1c0.5,0.2,0.6,0.9,0.4,1.4c0,0.1-0.1,0.3-0.2,0.4l-0.1,0.1
		C19.4,21.1,15.6,23.2,11.6,23.2z"/>
	<path class="st0" d="M11.6,0.1C5.3,0.1,0.1,5.3,0.1,11.6s5.1,11.5,11.5,11.5c3.9,0,7.7-2.1,9.8-5.4l0.1-0.1
		c0.1-0.1,0.2-0.3,0.2-0.4c0.2-0.4,0.1-1-0.3-1.2c-0.4-0.2-1-0.1-1.2,0.3c-0.1,0.1-0.1,0.2-0.2,0.4l-0.1,0.1
		c-1.8,2.9-4.9,4.6-8.3,4.6c-5.3,0-9.7-4.3-9.7-9.7S6.3,2,11.6,2s9.7,4.3,9.7,9.7c0,0.5,0.4,0.9,0.9,0.9c0.5,0,0.9-0.4,0.9-0.9
		C23.1,5.3,17.9,0.1,11.6,0.1z"/>
	<path class="st0" d="M9.2,16.8c-0.6,0-1-0.5-1-1V7.5c0-0.2,0-0.4,0.1-0.5c0.1-0.3,0.5-0.5,0.9-0.5c0.2,0,0.3,0,0.5,0.1l7.3,4.2
		l0.3,0.3c0.2,0.2,0.2,0.5,0.2,0.8c-0.1,0.3-0.3,0.5-0.5,0.7l-7.2,4.1C9.6,16.8,9.4,16.8,9.2,16.8z M10.2,14l4.1-2.4l-4.1-2.4V14z"
		/>
	<path class="st0" d="M9.6,6.7c-0.4-0.2-1-0.1-1.2,0.4C8.3,7.2,8.3,7.3,8.3,7.5v8.3c0,0.5,0.4,0.9,0.9,0.9c0.2,0,0.3,0,0.5-0.1
		l7.2-4.1c0.4-0.2,0.6-0.8,0.3-1.2c-0.1-0.1-0.2-0.2-0.3-0.3L9.6,6.7z M10,14.3V8.9l4.5,2.7L10,14.3L10,14.3z"/>
</g>
</svg>
