<?xml version="1.0" encoding="utf-8"?>
<!-- Generator: Adobe Illustrator 24.1.0, SVG Export Plug-In . SVG Version: 6.00 Build 0)  -->
<svg version="1.1" id="图层_1" xmlns="http://www.w3.org/2000/svg" xmlns:xlink="http://www.w3.org/1999/xlink" x="0px" y="0px"
	 viewBox="0 0 23.2 23.2" style="enable-background:new 0 0 23.2 23.2;" xml:space="preserve">
<style type="text/css">
	.st0{fill:#438CFF;}
</style>
<g>
	<path class="st0" d="M13.9,16.9c-0.6,0-1-0.4-1-0.9V8c0-0.5,0.5-0.9,1-0.9c0.6,0,1,0.4,1,0.9v8C14.9,16.5,14.4,16.9,13.9,16.9z
		 M9.4,16.8c-0.6,0-1-0.4-1-0.9v-8c0-0.5,0.3-0.8,0.9-0.8s1,0.4,1,0.9v8C10.3,16.5,9.9,16.8,9.4,16.8z M1.6,5.9c-0.6,0-1-0.4-1-0.9
		c0-0.5,0.5-0.9,1-0.9h3.7l0-1.3c0-1.3,1.1-2.4,2.5-2.4h7.7c1.4,0,2.5,1.1,2.5,2.4v1.4l3.6,0c0.5,0,1,0.4,1,0.9c0,0.5-0.5,0.9-1,0.9
		H1.6z M7.8,2.3c-0.4,0-0.6,0.2-0.6,0.5v1.4l8.8,0l0-1.3c0-0.3-0.2-0.5-0.5-0.5H7.8z"/>
	<path class="st0" d="M13.9,16.8c-0.6,0-1-0.3-1-0.8V8c0-0.5,0.5-0.8,1-0.8c0.6,0,1,0.3,1,0.8v8C14.8,16.5,14.4,16.8,13.9,16.8z
		 M9.4,16.7c-0.6,0-1-0.3-1-0.9v-8c0-0.5,0.3-0.7,0.9-0.7c0.6,0,1,0.3,1,0.8v8C10.2,16.5,9.9,16.7,9.4,16.7z M1.7,5.8
		c-0.6,0-1-0.3-1-0.9c0-0.5,0.5-0.8,1-0.8h3.7V2.8c0-1.3,1.1-2.4,2.5-2.4h7.7c1.4,0,2.5,1.1,2.5,2.4v1.4h3.6c0.5,0,1,0.3,1,0.8
		c0,0.5-0.5,0.9-1,0.9H1.7z M16,4.1V2.8c0-0.3-0.2-0.6-0.5-0.6H7.8c-0.4,0-0.6,0.2-0.6,0.6v1.4H16z"/>
	<path class="st0" d="M13.9,16.7c-0.5,0-0.9-0.3-0.9-0.8V8c0-0.4,0.4-0.8,0.9-0.8c0.5,0,0.8,0.3,0.8,0.8v8
		C14.7,16.4,14.4,16.7,13.9,16.7z M9.4,16.6c-0.5,0-0.9-0.3-0.9-0.8v-8c0-0.4,0.2-0.6,0.8-0.6c0.5,0,0.8,0.3,0.8,0.8v8
		C10.1,16.4,9.9,16.6,9.4,16.6z M1.7,5.7C1.1,5.7,0.8,5.4,0.8,5c0-0.4,0.4-0.8,0.8-0.8h3.8l0-1.5c0-1.2,1.1-2.2,2.3-2.2h7.7
		c1.3,0,2.3,1,2.3,2.2v1.5l3.8,0c0.4,0,0.9,0.3,0.9,0.8c0,0.4-0.4,0.7-0.9,0.7H1.7z M7.8,2.1C7.3,2.1,7,2.4,7,2.8v1.5l9.2,0l0-1.5
		c0-0.4-0.3-0.6-0.7-0.6H7.8z"/>
	<path class="st0" d="M21.6,4.3h-3.8V2.8c0-1.2-1-2.2-2.3-2.2H7.8c-1.3,0-2.3,1-2.3,2.2l0,0v1.5H1.7C1.3,4.3,0.9,4.6,0.9,5
		s0.3,0.7,0.8,0.7h19.9c0.4,0,0.8-0.3,0.8-0.7C22.4,4.6,22,4.3,21.6,4.3z M16.2,4.3H7V2.8c0-0.4,0.3-0.7,0.8-0.7h7.7
		c0.4,0,0.7,0.3,0.7,0.7l0,0V4.3z M10.1,16V8c0-0.4-0.3-0.7-0.8-0.7S8.6,7.5,8.6,7.9v8c0,0.4,0.3,0.7,0.8,0.7S10.1,16.4,10.1,16z
		 M14.7,16V8c0-0.4-0.3-0.7-0.8-0.7c-0.4,0-0.8,0.3-0.8,0.7v8c0,0.4,0.3,0.7,0.8,0.7S14.7,16.4,14.7,16z"/>
	<path class="st0" d="M8.3,22.8c-2.6,0-4.8-2.1-4.8-4.6v-11c0-0.5,0.5-0.9,1-0.9c0.6,0,1,0.4,1,0.9v11c0,1.5,1.3,2.7,2.9,2.7h6.5
		c1.6,0,2.9-1.2,2.9-2.7v-11c0-0.5,0.5-0.9,1-0.9c0.3,0,0.6,0.1,0.8,0.4c0.1,0.2,0.2,0.4,0.1,0.6l0,11c0,2.5-2.2,4.6-4.8,4.6H8.3z"
		/>
	<path class="st0" d="M8.3,22.7c-2.6,0-4.8-2.1-4.8-4.6v-11c0-0.5,0.5-0.9,1-0.9c0.6,0,1,0.3,1,0.9v11c0,1.5,1.3,2.8,2.9,2.8h6.5
		c1.6,0,3-1.2,3-2.8v-11c0-0.5,0.5-0.9,1-0.9c0.3,0,0.6,0.1,0.7,0.3c0.1,0.2,0.2,0.4,0.1,0.6l0,11c0,2.5-2.1,4.6-4.8,4.6H8.3z"/>
	<path class="st0" d="M8.3,22.6c-2.5,0-4.6-2-4.6-4.5v-11c0-0.4,0.4-0.7,0.8-0.7c0.5,0,0.8,0.3,0.8,0.7v11c0,1.6,1.4,2.9,3.1,2.9
		h6.5c1.7,0,3-1.3,3-2.9v-11c0-0.4,0.4-0.7,0.8-0.7c0.3,0,0.5,0.1,0.6,0.3c0.1,0.1,0.1,0.3,0.1,0.5l0,11c0,2.5-2.1,4.5-4.6,4.5H8.3z
		"/>
	<path class="st0" d="M18.8,6.5c-0.4,0-0.8,0.3-0.8,0.7v11c0,1.6-1.4,2.9-3.1,2.9l0,0H8.4c-1.7,0-3.1-1.3-3.1-2.9l0,0v-11
		c0-0.4-0.3-0.7-0.8-0.7c-0.4,0-0.8,0.3-0.8,0.7v11c0,2.4,2.1,4.4,4.6,4.4l0,0h6.6c2.6,0,4.6-2,4.6-4.4v-11
		C19.6,6.8,19.2,6.5,18.8,6.5L18.8,6.5L18.8,6.5z"/>
</g>
</svg>
