<?xml version="1.0" standalone="no"?><!DOCTYPE svg PUBLIC "-//W3C//DTD SVG 1.1//EN" "http://www.w3.org/Graphics/SVG/1.1/DTD/svg11.dtd"><svg t="1589765547111" class="icon" viewBox="0 0 1024 1024" version="1.1" xmlns="http://www.w3.org/2000/svg" p-id="5347" xmlns:xlink="http://www.w3.org/1999/xlink" width="200" height="200"><defs><style type="text/css"></style></defs><path d="M216.197 408.375h590.357c27.17 0 49.197 22.026 49.197 49.197V900.34c0 27.17-22.026 49.196-49.197 49.196H216.197c-27.171 0-49.197-22.026-49.197-49.196V457.572c0-27.171 22.026-49.197 49.197-49.197z m353.32 268.344c16.1-13.417 26.834-32.2 26.834-53.669 0-37.568-29.518-67.086-67.086-67.086-37.569 0-67.087 29.517-67.087 67.086 0 21.467 10.734 40.251 26.835 53.67v53.668c0 21.468 18.784 40.252 40.25 40.252 21.468 0 40.252-18.784 40.252-40.252V676.72h0.002zM748.412 408.375H667.91V305.51c0-88.554-72.453-161.007-161.007-161.007-88.553 0-161.006 72.453-161.006 161.007v102.865h-80.504V305.51C265.392 171.338 372.73 64 506.902 64c134.173 0 241.51 107.338 241.51 241.51v102.865z" p-id="5348" fill="#cccccc"></path></svg>