<?xml version="1.0" encoding="utf-8"?>
<!-- Generator: Adobe Illustrator 21.0.0, SVG Export Plug-In . SVG Version: 6.00 Build 0)  -->
<svg version="1.1" id="图层_1" xmlns="http://www.w3.org/2000/svg" xmlns:xlink="http://www.w3.org/1999/xlink" x="0px" y="0px"
	 viewBox="0 0 36 36" style="enable-background:new 0 0 36 36;" xml:space="preserve">
<style type="text/css">
	.st0{fill:#CCCCCC;}
</style>
<g>
	<g>
		<path class="st0" d="M28.7,14.7H11.9v-2.1c0-3.9,3.4-6.3,6.6-6.3c2.5,0,5,1.5,6.1,3.7c0.3,0.5,0.9,0.7,1.4,0.5
			c0.5-0.3,0.7-0.9,0.5-1.4c-1.5-2.9-4.7-4.9-8-4.9c-4.3,0-8.7,3.1-8.7,8.4v2.1H7.7c-1.7,0-3.2,1.4-3.2,3.2v11.5
			c0,1.7,1.4,3.2,3.2,3.2h21c1.7,0,3.2-1.4,3.2-3.1V17.9C31.8,16.2,30.4,14.7,28.7,14.7L28.7,14.7z M19.2,26.3
			c0,0.6-0.5,1.1-1.1,1.1c-0.6,0-1.1-0.5-1.1-1.1v-3.2c0-0.6,0.5-1.1,1.1-1.1c0.6,0,1.1,0.5,1.1,1.1V26.3z M19.2,26.3"/>
	</g>
</g>
</svg>
