<?xml version="1.0" encoding="utf-8"?>
<!-- Generator: Adobe Illustrator 21.0.0, SVG Export Plug-In . SVG Version: 6.00 Build 0)  -->
<svg version="1.1" id="图层_1" xmlns="http://www.w3.org/2000/svg" xmlns:xlink="http://www.w3.org/1999/xlink" x="0px" y="0px"
	 viewBox="0 0 36 36" style="enable-background:new 0 0 36 36;" xml:space="preserve">
<style type="text/css">
	.st0{fill:#CCCCCC;}
</style>
<g>
	<path class="st0" d="M26.4,0.8H10.6c-1.6,0-2.8,1.3-2.8,2.8v28.8c0,1.6,1.3,2.8,2.8,2.8h15.8c1.6,0,2.8-1.3,2.8-2.8V3.7
		C29.2,2.1,27.9,0.8,26.4,0.8L26.4,0.8z M10.6,2.8h15.8c0.5,0,0.9,0.4,0.9,0.9v23.3H9.8V3.7C9.8,3.2,10.1,2.8,10.6,2.8L10.6,2.8z
		 M15.9,30.7c0-1.5,1.2-2.7,2.7-2.7c1.5,0,2.7,1.2,2.7,2.7c0,1.3-0.9,2.3-2.2,2.6H18C16.8,33.1,15.9,32,15.9,30.7L15.9,30.7z
		 M15.9,30.7"/>
</g>
</svg>
