<?xml version="1.0" standalone="no"?><!DOCTYPE svg PUBLIC "-//W3C//DTD SVG 1.1//EN" "http://www.w3.org/Graphics/SVG/1.1/DTD/svg11.dtd"><svg t="1589521825838" class="icon" viewBox="0 0 1228 1024" version="1.1" xmlns="http://www.w3.org/2000/svg" p-id="15706" xmlns:xlink="http://www.w3.org/1999/xlink" width="239.84375" height="200"><defs><style type="text/css"></style></defs><path d="M669.4912 576.3072c-127.863467 34.816-267.6736 144.452267-267.6736 251.2896v136.738133H40.686933a40.1408 40.1408 0 0 1-40.072533-40.072533v-93.730133c0-177.7664 353.621333-267.400533 530.773333-267.400534 39.3216-0.136533 87.381333 4.369067 138.103467 13.175467z m-267.6736-93.525333A240.708267 240.708267 0 1 1 401.749333 1.365333a240.708267 240.708267 0 0 1 0 481.4848z m467.490133 80.213333c103.6288-2.6624 190.464-87.790933 195.242667-191.214933a200.567467 200.567467 0 0 0-196.334933-209.851734H860.16a200.4992 200.4992 0 1 0 9.147733 400.9984z m-9.284266 80.349867c-120.4224 0-361.130667 71.68-361.130667 214.016v66.901333c0 22.1184 18.0224 40.072533 40.1408 40.072533H1181.013333a40.1408 40.1408 0 0 0 40.072534-40.072533v-66.901333c0-142.472533-240.571733-214.016-361.0624-214.016z" p-id="15707"></path></svg>