<?xml version="1.0" standalone="no"?><!DOCTYPE svg PUBLIC "-//W3C//DTD SVG 1.1//EN" "http://www.w3.org/Graphics/SVG/1.1/DTD/svg11.dtd"><svg t="1588212782403" class="icon" viewBox="0 0 1024 1024" version="1.1" xmlns="http://www.w3.org/2000/svg" p-id="7330" xmlns:xlink="http://www.w3.org/1999/xlink" width="200" height="200"><defs><style type="text/css"></style></defs><path d="M512 0C230.4 0 0 230.4 0 512s230.4 512 512 512 512-230.4 512-512-230.4-512-512-512zM390.4 806.4c-44.8 51.2-128 51.2-179.2 6.4l-6.4-6.4c-51.2-51.2-51.2-134.4 0-179.2l147.2-147.2 64 64-57.6 51.2-89.6 89.6c-12.8 12.8-12.8 32 0 44.8l6.4 6.4c12.8 12.8 32 12.8 44.8 0l147.2-147.2 70.4 70.4-147.2 147.2z m428.8-403.2l-153.6 153.6-76.8-76.8 64-64 89.6-89.6c12.8-12.8 12.8-32 0-44.8l-6.4-6.4c-12.8-12.8-32-12.8-44.8 0L537.6 428.8l-64-64 153.6-153.6c51.2-51.2 134.4-51.2 179.2 0l6.4 6.4c57.6 51.2 57.6 134.4 6.4 185.6z" p-id="7331"></path></svg>