<?xml version="1.0" standalone="no"?><!DOCTYPE svg PUBLIC "-//W3C//DTD SVG 1.1//EN" "http://www.w3.org/Graphics/SVG/1.1/DTD/svg11.dtd"><svg t="1589960444322" class="icon" viewBox="0 0 1024 1024" version="1.1" xmlns="http://www.w3.org/2000/svg" p-id="2356" xmlns:xlink="http://www.w3.org/1999/xlink" width="200" height="200"><defs><style type="text/css"></style></defs><path d="M908.672 400.512c30.08-30.08 46.976-69.504 46.976-112.768 0-43.2-16.896-82.688-46.976-112.768A157.76 157.76 0 0 0 795.904 128c-43.2 0-82.688 16.896-112.768 46.976L502.72 359.168c-15.04 15.04-15.04 39.488 0 52.608 15.04 15.04 39.488 15.04 52.608 0l180.48-184.192c15.04-15.04 35.712-24.384 58.24-24.384s43.2 9.344 58.24 24.384c15.04 15.04 24.448 35.712 24.448 58.24 0 22.592-9.408 43.264-24.448 58.304l-180.416 184.192c-15.04 15.04-15.04 39.488 0 52.608a37.12 37.12 0 0 0 26.304 11.328 37.12 37.12 0 0 0 26.304-11.328l184.192-180.416z m-327.04 274.432a36.352 36.352 0 0 0-52.608 0l-182.272 182.272c-32 32-84.608 32-118.4 0-32-31.936-32-84.544 0-118.4l182.272-180.48a36.352 36.352 0 0 0 0-52.544 36.352 36.352 0 0 0-52.608 0L175.68 688a157.696 157.696 0 0 0 0 223.68c30.08 30.08 71.424 46.976 112.768 46.976 41.344 0 80.832-15.04 112.768-46.976l182.336-180.48c13.12-16.896 13.12-41.28-1.92-56.32zM425.728 263.296c3.776 16.96 18.816 28.16 35.712 28.16 3.776 0 5.632 0 9.408-1.792a36.48 36.48 0 0 0 26.304-45.12L474.56 158.08a36.48 36.48 0 0 0-45.12-26.304 36.48 36.48 0 0 0-26.304 45.12l22.528 86.4zM303.488 359.168a37.12 37.12 0 0 0 26.304 11.264 37.12 37.12 0 0 0 26.368-11.264 36.352 36.352 0 0 0 0-52.608l-63.936-63.936a36.352 36.352 0 0 0-52.608 0 36.352 36.352 0 0 0 0 52.672l63.872 63.872z m-146.56 120.32l86.4 22.528c3.84 0 5.696 1.92 9.408 1.92 16.96 0 32-11.328 35.712-28.224a37.568 37.568 0 0 0-26.24-46.976l-86.528-22.592a37.568 37.568 0 0 0-46.976 26.304c-3.776 22.592 7.552 43.264 28.16 47.04z m501.76 342.016a36.48 36.48 0 0 0-45.056-26.24 36.48 36.48 0 0 0-26.304 45.056l22.528 86.4c3.776 16.96 18.816 28.224 35.712 28.224 3.776 0 5.632 0 9.408-1.92a36.48 36.48 0 0 0 26.24-45.056l-22.464-86.4z m122.24-95.808a36.352 36.352 0 0 0-52.672 0 36.352 36.352 0 0 0 0 52.608l63.936 63.872a37.12 37.12 0 0 0 26.24 11.264 37.12 37.12 0 0 0 26.368-11.264 36.352 36.352 0 0 0 0-52.608l-63.936-63.872z m146.56-120.32l-86.4-22.528a37.568 37.568 0 0 0-47.04 26.24 37.568 37.568 0 0 0 26.304 47.04l86.4 22.528c3.84 0 5.696 1.92 9.472 1.92 16.896 0 31.936-11.264 35.712-28.16a35.2 35.2 0 0 0-24.448-47.04z" p-id="2357"></path></svg>