<?xml version="1.0" standalone="no"?><!DOCTYPE svg PUBLIC "-//W3C//DTD SVG 1.1//EN" "http://www.w3.org/Graphics/SVG/1.1/DTD/svg11.dtd"><svg t="1588763852096" class="icon" viewBox="0 0 1024 1024" version="1.1" xmlns="http://www.w3.org/2000/svg" p-id="6814" xmlns:xlink="http://www.w3.org/1999/xlink" width="200" height="200"><defs><style type="text/css"></style></defs><path d="M454.314667 10.24a172.373333 172.373333 0 0 1 115.370666 0l326.485334 115.882667c34.389333 12.202667 57.429333 44.714667 57.429333 81.237333v393.472C953.6 870.741333 512 1024 512 1024S70.4 870.912 70.4 600.917333V207.36c0-36.437333 22.954667-69.034667 57.344-81.237333L454.314667 10.154667z m274.602666 299.008l-276.48 287.061333-152.576-162.645333a43.093333 43.093333 0 1 0-62.805333 58.88l183.552 195.754667a43.093333 43.093333 0 0 0 62.464 0.426666L791.04 369.066667a43.093333 43.093333 0 0 0-62.122667-59.733334z" p-id="6815"></path></svg>